# xmcd
#
# Track frame offsets:
#	150
#	18190
#	34372
#	48926
#	65643
#	81392
#	96460
#	110470
#	124910
#	138230
#	152809
#	168467
#	181546
#	197034
#
# Disc length: 2888 seconds
#
# Revision: 1
# Processed by: cddbd v1.5.2PL0 Copyright (c) Steve Scherf et al.
# Submitted via: audiograbber 1.83.01
#
DISCID=be0b460e
DTITLE=Monika Martin - Himmlische Geigen
DYEAR=2010
DGENRE=Schlager
TTITLE0=La Luna Blue
TTITLE1=Du warst da (als der Sommer kam)
TTITLE2=Flieg, kleine Schwalbe, flieg
TTITLE3=Kleine Möve Jonathan
TTITLE4=Stern von Afrika
TTITLE5=Der Wind in den Haaren
TTITLE6=Mein Brief
TTITLE7=Lass die Träume nie verloren geh'n
TTITLE8=Himmlische Geigen
TTITLE9=Mein Gefühl
TTITLE10=River Blue
TTITLE11=Ein kleines Glück
TTITLE12=Ave Maria no morro
TTITLE13=Wolgalied
EXTD=
EXTT0=
EXTT1=
EXTT2=
EXTT3=
EXTT4=
EXTT5=
EXTT6=
EXTT7=
EXTT8=
EXTT9=
EXTT10=
EXTT11=
EXTT12=
EXTT13=
PLAYORDER=
